<svg xmlns="http://www.w3.org/2000/svg" xmlns:xlink="http://www.w3.org/1999/xlink" version="1.1" x="0px" y="0px" viewBox="20 70 560 500" style="enable-background:new 0 0 612 612;" xml:space="preserve"><style type="text/css">
	.st0{fill:none;stroke:#070707;stroke-width:19;stroke-miterlimit:10;}
	.st1{fill:none;stroke:#070707;stroke-width:12;stroke-miterlimit:10;}
	.st2{fill:none;stroke:#000000;stroke-width:16;stroke-miterlimit:10;}
</style><path class="st0" d="M240.3,305"/><ellipse class="st0" cx="316.9" cy="284.1" rx="111.8" ry="20.9"/><path class="st0" d="M205.4,333.6c0,11.6,50,20.9,111.8,20.9S429,345.1,429,333.6"/><line class="st0" x1="205.1" y1="284.1" x2="205.4" y2="333.6"/><line class="st0" x1="428.7" y1="284.1" x2="429" y2="333.6"/><path class="st1" d="M133.9,295.3"/><path class="st0" d="M399.5,509.4c0,7.1-36.8,18.2-82.3,18.2S235,516.5,235,509.4"/><line class="st0" x1="235" y1="509.4" x2="216.3" y2="342.9"/><line class="st0" x1="399.5" y1="509.4" x2="417.1" y2="344.8"/><path class="st2" d="M278.7,119c11.6,11.6,14.1,28,5.4,36.6c-8.6,8.6-25,6.2-36.6-5.4c-11.6-11.6-12.1-29.9-5.4-36.6  C250.7,104.9,267.1,107.3,278.7,119z"/><ellipse class="st2" cx="308.2" cy="122.6" rx="21.8" ry="28.2"/><ellipse transform="matrix(0.9929 -0.1187 0.1187 0.9929 -16.1796 42.1381)" class="st2" cx="345.6" cy="156.9" rx="29.1" ry="22.4"/><ellipse transform="matrix(0.7554 -0.6553 0.6553 0.7554 -51.7522 268.0255)" class="st2" cx="333.1" cy="203.3" rx="22.4" ry="29.1"/><ellipse transform="matrix(0.9929 -0.1187 0.1187 0.9929 -19.681 31.1466)" class="st2" cx="251.6" cy="180.8" rx="29.1" ry="22.4"/><path class="st2" d="M266.1,206.3c5.3-14.1,18.4-22.4,29.3-18.3c10.9,4.1,15.5,18.8,10.2,33c-5.3,14.1-18,21.4-29,17.3  C265.7,234.2,260.8,220.4,266.1,206.3z"/><path class="st2" d="M307.5,214.2c5.7,12.5,12.6,29.3,14.9,53c3.3,33.1-0.2,27.9-5.5,42.7"/><circle class="st2" cx="298.7" cy="169.1" r="19.3"/><text x="0" y="627" fill="#000000" font-size="5px" font-weight="bold" font-family="'Helvetica Neue', Helvetica, Arial-Unicode, Arial, Sans-serif">Created by ekin tumer</text><text x="0" y="632" fill="#000000" font-size="5px" font-weight="bold" font-family="'Helvetica Neue', Helvetica, Arial-Unicode, Arial, Sans-serif">from the Noun Project</text></svg>