<svg xmlns="http://www.w3.org/2000/svg" xmlns:xlink="http://www.w3.org/1999/xlink" version="1.1" x="0px" y="0px" viewBox="0 25 100 50" style="enable-background:new 0 0 100 100;"><path d="M54.6655273,38.1098633c0-2.5727539-2.0927734-4.6655273-4.6655273-4.6655273s-4.6655273,2.0927734-4.6655273,4.6655273  S47.4272461,42.7753906,50,42.7753906S54.6655273,40.6826172,54.6655273,38.1098633z M50,40.7753906  c-1.4697266,0-2.6655273-1.1958008-2.6655273-2.6655273S48.5302734,35.4443359,50,35.4443359  s2.6655273,1.1958008,2.6655273,2.6655273S51.4697266,40.7753906,50,40.7753906z M16.9995117,41.1098633  c-2.171875,0-3.9384766,1.7666016-3.9384766,3.9384766s1.7666016,3.9384766,3.9384766,3.9384766  s3.9384766-1.7666016,3.9384766-3.9384766S19.1713867,41.1098633,16.9995117,41.1098633z M16.9995117,46.9868164  c-1.0688477,0-1.9384766-0.8696289-1.9384766-1.9384766s0.8696289-1.9384766,1.9384766-1.9384766  s1.9384766,0.8696289,1.9384766,1.9384766S18.0683594,46.9868164,16.9995117,46.9868164z M83.0004883,41.1098633  c-2.171875,0-3.9384766,1.7666016-3.9384766,3.9384766s1.7666016,3.9384766,3.9384766,3.9384766  s3.9384766-1.7666016,3.9384766-3.9384766S85.1723633,41.1098633,83.0004883,41.1098633z M83.0004883,46.9868164  c-1.0693359,0-1.9384766-0.8696289-1.9384766-1.9384766s0.8691406-1.9384766,1.9384766-1.9384766  s1.9384766,0.8696289,1.9384766,1.9384766S84.0698242,46.9868164,83.0004883,46.9868164z M96.7387695,72.3623047H85.6499023  v-2.4570313l2.1011353-2.1011353c0.0861206,0.0020142,0.1810913,0.003479,0.2865601,0.003479  c1.5195313,0,4.9394531-0.2675781,7.1621094-2.4912109c2.8681641-2.8691406,2.4824219-7.7246094,2.4648438-7.9296875  c-0.0419922-0.484375-0.4257813-0.8681641-0.9101563-0.9101563c-0.203125-0.0166016-5.0605469-0.4033203-7.9287109,2.4648438  c-2.3829346,2.3812866-2.5202026,6.1268311-2.4883423,7.4483032l-0.687439,0.687439V54.3658447  c0.3200684-0.244751,0.6060791-0.5299072,0.8378906-0.8599854c1.3056641,0.2363281,2.6962891-0.2070313,3.7304688-1.2392578  c1.0332031-1.0332031,1.4765625-2.4228516,1.2392578-3.7304688c1.0791016-0.7583008,1.7392578-2.043457,1.7392578-3.4873047  s-0.6601563-2.7299805-1.7392578-3.487793c0.2373047-1.3076172-0.2060547-2.6967773-1.2392578-3.7299805  c-1.0341797-1.0327148-2.421875-1.4736328-3.7304688-1.2397461c-0.7578125-1.0791016-2.0439453-1.7397461-3.4882813-1.7397461  c-1.4433594,0-2.7294922,0.6606445-3.4873047,1.7397461c-1.3046875-0.2387695-2.6953125,0.206543-3.7285156,1.2392578  c-1.0341797,1.0332031-1.4775391,2.4223633-1.2402344,3.7299805c-1.0791016,0.7583008-1.7402344,2.0439453-1.7402344,3.487793  s0.6611328,2.7299805,1.7402344,3.487793c-0.2373047,1.3081055,0.2070313,2.6972656,1.2402344,3.7304688  s2.4238281,1.4775391,3.7285156,1.2392578c0.2318115,0.3300781,0.5178223,0.6152344,0.8378906,0.8600464v12.7105713  l-0.687439-0.6873779c0.0317993-1.3220825-0.1056519-5.0667725-2.4873657-7.4476929  c-2.8681641-2.8681641-7.7231445-2.4814453-7.9301758-2.4648438c-0.4838867,0.0419922-0.8676758,0.4257813-0.909668,0.9101563  c-0.0180664,0.2050781-0.402832,5.0605469,2.4648438,7.9296875c2.2226563,2.2236328,5.6416016,2.4912109,7.1621094,2.4912109  c0.1056519,0,0.2009277-0.0014648,0.2871704-0.003479l2.1005249,2.1002808v2.4578857h-27.550293v-4.7139893l1.7980957-1.8059082  c0.2178955,0.012085,0.4899902,0.0228271,0.822998,0.0228271c1.9589844,0,5.6508789-0.3525391,8.0458984-2.7578125v-0.0009766  c3.3168945-3.3310547,2.6860352-9.1308594,2.6572266-9.3759766c-0.0537109-0.4628906-0.4194336-0.8271484-0.8823242-0.8789063  c-0.2431641-0.0244141-6.0478516-0.6328125-9.3642578,2.6992188c-2.8032227,2.8151855-2.786438,7.3812256-2.6967163,8.8796997  l-0.3809204,0.3825684V49.7836304c0.5740356-0.3627319,1.0684814-0.8322754,1.4379883-1.399353  c1.6005859,0.347168,3.3193359-0.175293,4.5898438-1.4458008c1.2719727-1.2714844,1.7939453-2.9936523,1.4472656-4.5913086  c1.3588867-0.8857422,2.1972656-2.4604492,2.1972656-4.2373047c0-1.7773438-0.8383789-3.3520508-2.1972656-4.237793  c0.347168-1.597168-0.175293-3.3193359-1.4462891-4.5908203c-1.2714844-1.2714844-2.9921875-1.7944336-4.5908203-1.4462891  c-0.8862305-1.359375-2.4609375-2.1977539-4.2382813-2.1972656c-1.7768555,0-3.3515625,0.8383789-4.2373047,2.1972656  c-1.5981445-0.3457031-3.3193359,0.1757813-4.5908203,1.4462891c-1.2709961,1.2714844-1.793457,2.9936523-1.4462891,4.5908203  c-1.359375,0.8857422-2.1977539,2.4609375-2.1972656,4.2382813c0,1.7768555,0.8383789,3.3515625,2.1972656,4.2373047  c-0.347168,1.597168,0.175293,3.3188477,1.4467773,4.590332c1.2714844,1.2719727,2.9926758,1.793457,4.590332,1.4462891  c0.3693848,0.5669556,0.8637085,1.036438,1.4375,1.3991089v15.0305176l-0.3809204-0.3826294  c0.0899048-1.4976196,0.1075439-6.0647583-2.696228-8.8804932c-3.3173828-3.3330078-9.1186523-2.7246094-9.3647461-2.6992188  c-0.4624023,0.0517578-0.828125,0.4160156-0.8818359,0.8789063c-0.0288086,0.2451172-0.6601563,6.0449219,2.6572266,9.3759766  c0,0.0009766,0,0.0009766,0,0.0009766c2.3955078,2.4052734,6.0869141,2.7578125,8.0454102,2.7578125  c0.3334961,0,0.605957-0.0108032,0.8240356-0.0228882l1.7970581,1.8049316v4.7150269h-27.550293v-2.4575195l2.100647-2.100647  c0.0862427,0.0020142,0.1813965,0.003479,0.2870483,0.003479c1.5200195,0,4.9384766-0.2675781,7.1621094-2.4912109  c2.8676758-2.8691406,2.4829102-7.7246094,2.4648438-7.9296875c-0.0419922-0.484375-0.4257813-0.8681641-0.909668-0.9101563  c-0.2055664-0.0166016-5.0615234-0.4023438-7.9296875,2.4648438c-2.3811646,2.3807373-2.5192871,6.1251221-2.4874878,7.4474487  l-0.6878052,0.6878052V54.3658447c0.3200684-0.244751,0.6060791-0.5299072,0.8378906-0.8599854  c1.3071289,0.2402344,2.6967773-0.2060547,3.7294922-1.2392578c1.0332031-1.0332031,1.4765625-2.4223633,1.2397461-3.7304688  c1.0795898-0.7578125,1.7397461-2.043457,1.7397461-3.4873047c0.0004883-1.4438477-0.6601563-2.7299805-1.7397461-3.4882813  c0.2373047-1.3071289-0.2060547-2.6962891-1.2387695-3.7294922c-1.0322266-1.0332031-2.4223633-1.4736328-3.7299805-1.2397461  c-0.7583008-1.0791016-2.0444336-1.7397461-3.4882813-1.7397461c-1.4433594,0-2.7294922,0.6606445-3.4873047,1.7397461  c-1.3061523-0.2368164-2.6962891,0.206543-3.7299805,1.2397461c-1.0332031,1.0327148-1.4765625,2.421875-1.2397461,3.7294922  c-1.0795898,0.7583008-1.7397461,2.0439453-1.7397461,3.487793s0.6601563,2.7299805,1.7397461,3.487793  c-0.2368164,1.3076172,0.206543,2.6972656,1.2397461,3.7304688c1.0336914,1.0332031,2.421875,1.4804688,3.7299805,1.2392578  c0.2316895,0.329895,0.5175781,0.6149902,0.8374023,0.8596802v12.7111206l-0.6873169-0.6873169  c0.0318604-1.3218384-0.1060791-5.0668945-2.4879761-7.447937c-2.8676758-2.8691406-7.7226563-2.4814453-7.9296875-2.4648438  c-0.4838867,0.0419922-0.8676758,0.4257813-0.909668,0.9101563c-0.0180664,0.2050781-0.402832,5.0605469,2.4648438,7.9296875  c2.2236328,2.2236328,5.6420898,2.4912109,7.1621094,2.4912109c0.1056519,0,0.2008057-0.0014648,0.2870483-0.003479  l2.100647,2.100647v2.4575195H3.2612305c-0.5522461,0-1,0.4472656-1,1s0.4477539,1,1,1h93.4775391c0.5527344,0,1-0.4472656,1-1  S97.2915039,72.3623047,96.7387695,72.3623047z M90.2397461,60.3554688  c1.5703125-1.5703125,4.1044922-1.8623047,5.4453125-1.8994141c-0.0371094,1.3417969-0.3291016,3.875-1.8994141,5.4462891  c-1.0750122,1.0750122-2.59552,1.5439453-3.881958,1.7491455l3.2755127-3.2755127c0.390625-0.390625,0.390625-1.0234375,0-1.4140625  s-1.0234375-0.390625-1.4140625,0l-3.2803955,3.2803955C88.6883545,62.9575806,89.1577759,61.4367676,90.2397461,60.3554688z   M72.8208008,62.3759766l3.2808838,3.2805176c-1.2848511-0.2035522-2.8058472-0.6726685-3.8873291-1.7541504  c-1.5703125-1.5712891-1.8623047-4.1044922-1.8989258-5.4462891c1.3408203,0.0371094,3.8745117,0.3291016,5.4458008,1.8994141  c1.0748901,1.0748901,1.5438843,2.5950928,1.7490845,3.8815308l-3.2754517-3.2750854  c-0.390625-0.390625-1.0234375-0.390625-1.4140625,0S72.4301758,61.9853516,72.8208008,62.3759766z M57.2944336,56.9609375  c1.9829102-1.9912109,5.3422852-2.203125,6.8886719-2.1630859c0.0322266,1.5546875-0.1513672,4.9072266-2.1333008,6.8984375  v-0.0009766c-1.4828491,1.4890137-3.7341919,1.9672852-5.4227905,2.1091309l5.5731812-5.5974121  c0.3896484-0.3916016,0.3886719-1.0253906-0.0029297-1.4150391c-0.3920898-0.3896484-1.0253906-0.3857422-1.4140625,0.0029297  l-5.5803833,5.6046753C55.3344116,60.7081299,55.8096924,58.4526367,57.2944336,56.9609375z M39.2167969,56.7958984  c-0.3891602-0.390625-1.0219727-0.3925781-1.4140625-0.0039063c-0.3916016,0.3896484-0.3925781,1.0234375-0.0029297,1.4140625  l5.5913086,5.6159058c-1.6878052-0.1342773-3.9473877-0.6257935-5.440918-2.1266479v0.0009766  c-1.9829102-1.9921875-2.1660156-5.3466797-2.1333008-6.9003906c1.5541992-0.0322266,4.8969727,0.1650391,6.8886719,2.1650391  c1.4848022,1.4921265,1.9599609,3.7481079,2.0913696,5.4396362L39.2167969,56.7958984z M24.2387695,60.3554688  c1.5703125-1.5703125,4.1044922-1.8623047,5.4453125-1.8994141c-0.0366211,1.3417969-0.3286133,3.875-1.8989258,5.4462891  c-1.0755005,1.0751343-2.5962524,1.5441895-3.8825684,1.7492676l3.2756348-3.2756348  c0.390625-0.390625,0.390625-1.0234375,0-1.4140625s-1.0234375-0.390625-1.4140625,0l-3.279541,3.279541  C22.6882935,62.9568481,23.1577148,61.4365234,24.2387695,60.3554688z M6.8208008,62.3759766l3.2758179,3.2758179  c-1.286438-0.2051392-2.807251-0.6743164-3.8827515-1.7494507c-1.5703125-1.5712891-1.8623047-4.1044922-1.8989258-5.4462891  c1.3408203,0.0371094,3.875,0.3291016,5.4453125,1.8994141c1.0750732,1.0747681,1.5444336,2.5949707,1.7495728,3.8814087  l-3.2749634-3.2749634c-0.390625-0.390625-1.0234375-0.390625-1.4140625,0S6.4301758,61.9853516,6.8208008,62.3759766z   M17.6494141,72.3623047h-1.2998047V55.1943359c0.2126465,0.0302124,0.4285278,0.0507813,0.6499023,0.0507813  s0.4372559-0.0205688,0.6499023-0.0507813V72.3623047z M19.065918,51.9541016  c-0.3681641,0.9521484-1.3085938,1.2910156-2.0664063,1.2910156c-0.7573242,0-1.6977539-0.3388672-2.065918-1.2910156  c-0.0991211-0.2568359-0.2988281-0.4609375-0.5527344-0.5644531c-0.1220703-0.0498047-0.2509766-0.0751953-0.3798828-0.0751953  c-0.1401367,0-0.2797852,0.0292969-0.4101563,0.0878906c-0.9384766,0.4228516-1.8520508-0.0087891-2.3945313-0.5498047  c-0.5424805-0.543457-0.9726563-1.4575195-0.550293-2.3955078c0.1123047-0.2504883,0.1171875-0.5361328,0.0131836-0.7900391  c-0.1044922-0.2539063-0.3085938-0.4541016-0.5649414-0.5527344c-0.9521484-0.3681641-1.2915039-1.3085938-1.2915039-2.065918  s0.3393555-1.6977539,1.2915039-2.065918c0.2563477-0.0986328,0.4604492-0.2988281,0.5649414-0.5527344  c0.1040039-0.2539063,0.0991211-0.5400391-0.0131836-0.7900391c-0.421875-0.9379883,0.0073242-1.8515625,0.550293-2.3945313  c0.5424805-0.5429688,1.4560547-0.9726563,2.3945313-0.550293c0.25,0.1113281,0.534668,0.1166992,0.7900391,0.0131836  c0.2539063-0.1044922,0.4536133-0.3085938,0.5527344-0.5644531c0.3681641-0.9526367,1.3085938-1.2919922,2.065918-1.2919922  c0.7578125,0,1.6982422,0.3393555,2.0664063,1.2919922c0.0991211,0.2558594,0.2988281,0.4599609,0.5527344,0.5644531  c0.2543945,0.1040039,0.5405273,0.0991211,0.7900391-0.0131836c0.9384766-0.4223633,1.8510742,0.0073242,2.3945313,0.550293  c0.5424805,0.5429688,0.972168,1.456543,0.550293,2.394043c-0.112793,0.2504883-0.1176758,0.5361328-0.0136719,0.7905273  c0.1044922,0.2539063,0.3085938,0.4536133,0.5644531,0.5527344c0.953125,0.3686523,1.2924805,1.309082,1.2919922,2.0664063  c0,0.7568359-0.3393555,1.6972656-1.2915039,2.0654297c-0.2563477,0.0986328-0.4604492,0.2988281-0.5649414,0.5527344  c-0.1040039,0.2539063-0.0991211,0.5395508,0.0131836,0.7900391c0.4223633,0.9379883-0.0073242,1.8525391-0.550293,2.3955078  s-1.4584961,0.9716797-2.394043,0.5498047c-0.2504883-0.1132813-0.5361328-0.1171875-0.7900391-0.0126953  C19.3647461,51.4931641,19.1650391,51.6972656,19.065918,51.9541016z M50.7998047,72.3623047H49.199707V50.517395  C49.4613037,50.5557861,49.7270508,50.5820313,50,50.5820313c0.2727661,0,0.5383911-0.0261841,0.7998047-0.0645142V72.3623047z   M50,48.5820313c-1.0268555,0-2.3037109-0.4648438-2.8081055-1.7695313  c-0.0986328-0.2563477-0.2988281-0.4604492-0.5527344-0.5649414c-0.1220703-0.0498047-0.2509766-0.074707-0.3798828-0.074707  c-0.1401367,0-0.2797852,0.0292969-0.4101563,0.0878906c-1.2841797,0.578125-2.527832-0.0019531-3.2631836-0.7368164  c-0.7353516-0.7353516-1.3154297-1.9790039-0.7373047-3.2636719c0.1123047-0.25,0.1171875-0.5361328,0.0131836-0.7900391  c-0.1044922-0.2539063-0.3085938-0.4541016-0.5649414-0.5527344c-1.3041992-0.5043945-1.769043-1.7807617-1.769043-2.8076172  c-0.0004883-1.0268555,0.4643555-2.3037109,1.769043-2.8081055c0.2563477-0.0991211,0.4604492-0.2988281,0.5649414-0.5527344  c0.1040039-0.2543945,0.0991211-0.5400391-0.0131836-0.7900391c-0.578125-1.284668,0.0019531-2.527832,0.7373047-3.2631836  c0.7348633-0.7368164,1.9780273-1.3164063,3.2631836-0.7373047c0.2495117,0.1118164,0.5351563,0.1162109,0.7900391,0.0131836  c0.2539063-0.1044922,0.4536133-0.3085938,0.5527344-0.5649414c0.5043945-1.3041992,1.78125-1.769043,2.8076172-1.769043  c1.0268555-0.0004883,2.3037109,0.4643555,2.8085938,1.7695313c0.0991211,0.2558594,0.2988281,0.4599609,0.5527344,0.5644531  c0.2543945,0.1035156,0.5400391,0.0996094,0.7900391-0.0131836c1.2851563-0.578125,2.527832,0.0014648,3.2631836,0.7373047  c0.7353516,0.7353516,1.3154297,1.9785156,0.7373047,3.2631836c-0.1123047,0.25-0.1171875,0.5356445-0.0131836,0.7900391  c0.1044922,0.2539063,0.3085938,0.4536133,0.5649414,0.5527344c1.3041992,0.5043945,1.769043,1.78125,1.769043,2.8081055  c0,1.0263672-0.4648438,2.3032227-1.769043,2.8076172c-0.2563477,0.0991211-0.4604492,0.2988281-0.5649414,0.5527344  c-0.1040039,0.2539063-0.0991211,0.5395508,0.0131836,0.7900391c0.578125,1.284668-0.0019531,2.5283203-0.737793,3.2636719  c-0.7353516,0.7348633-1.9785156,1.3139648-3.2626953,0.7368164c-0.2509766-0.1123047-0.5361328-0.1176758-0.7900391-0.0131836  s-0.4541016,0.3085938-0.5527344,0.5649414C52.3037109,48.1171875,51.0268555,48.5820313,50,48.5820313z M83.6499023,72.3623047  h-1.2998047V55.194397c0.2125244,0.0301514,0.4281616,0.0507202,0.6494141,0.0507202  c0.2215576,0,0.437561-0.0205688,0.6503906-0.0507813V72.3623047z M85.065918,51.9541016  c-0.3681641,0.9521484-1.3085938,1.2910156-2.0664063,1.2910156c-0.7568359,0-1.6972656-0.3388672-2.0654297-1.2910156  c-0.0986328-0.2558594-0.2988281-0.4609375-0.5527344-0.5644531c-0.1220703-0.0498047-0.2509766-0.0751953-0.3798828-0.0751953  c-0.1396484,0-0.2802734,0.0292969-0.4101563,0.0878906c-0.9384766,0.4228516-1.8505859-0.0087891-2.3935547-0.5498047  c-0.5429688-0.5429688-0.9726563-1.4575195-0.5507813-2.3955078c0.1123047-0.2504883,0.1171875-0.5361328,0.0126953-0.7900391  s-0.3085938-0.4541016-0.5644531-0.5527344c-0.9521484-0.3681641-1.2919922-1.3085938-1.2919922-2.065918  s0.3398438-1.6977539,1.2919922-2.065918c0.2558594-0.0986328,0.4599609-0.2988281,0.5644531-0.5527344  s0.0996094-0.5400391-0.0126953-0.7900391c-0.421875-0.9379883,0.0078125-1.8520508,0.5507813-2.3945313  c0.5419922-0.5429688,1.4550781-0.9726563,2.3935547-0.550293c0.25,0.1123047,0.5361328,0.1176758,0.7900391,0.0131836  s0.4541016-0.3085938,0.5527344-0.5649414c0.3681641-0.9521484,1.3085938-1.2915039,2.0654297-1.2915039  c0.7578125,0,1.6982422,0.3393555,2.0664063,1.2915039c0.0986328,0.2563477,0.2988281,0.4604492,0.5527344,0.5649414  c0.2539063,0.1040039,0.5400391,0.0991211,0.7900391-0.0131836c0.9335938-0.4223633,1.8515625,0.0068359,2.3955078,0.550293  c0.5419922,0.5429688,0.9716797,1.4570313,0.5498047,2.3945313c-0.1123047,0.25-0.1171875,0.5356445-0.0126953,0.7900391  c0.1035156,0.2539063,0.3076172,0.4536133,0.5644531,0.5527344c0.9521484,0.3681641,1.2910156,1.309082,1.2910156,2.0664063  s-0.3388672,1.6972656-1.2910156,2.0654297c-0.2558594,0.0991211-0.4599609,0.2988281-0.5644531,0.5527344  s-0.0996094,0.5400391,0.0126953,0.7900391c0.421875,0.9379883-0.0078125,1.8520508-0.5507813,2.3945313  c-0.5429688,0.5429688-1.4589844,0.9726563-2.3945313,0.5507813c-0.2490234-0.1123047-0.5361328-0.1162109-0.7900391-0.0126953  C85.3647461,51.4941406,85.1645508,51.6982422,85.065918,51.9541016z"/></svg>